<svg fill="#000000" xmlns="http://www.w3.org/2000/svg" xmlns:xlink="http://www.w3.org/1999/xlink" version="1.1" x="0px" y="0px" viewBox="0 0 168.292 195" enable-background="new 0 0 168.292 195" xml:space="preserve"><path d="M135.572,16.709L34.083,16.708c-3.664,0-6.646,2.98-6.646,6.645v142.87c0,3.666,2.982,6.648,6.646,6.648h60.104  c1.824,0,3.527-0.733,4.847-2.095l40.928-40.954l0.291-0.263c1.266-1.26,1.964-2.935,1.964-4.715V23.354  C142.216,19.689,139.235,16.709,135.572,16.709z M119.528,131.486l-18.693,18.694v-18.694H119.528z M128.923,30v88.197H94.19  c-3.663,0-6.646,2.981-6.646,6.647v34.737l-46.816-0.001V29.999L128.923,30z"/><path d="M71.101,58.106c-1.33-1.113-3.329-1.68-5.938-1.68c-2.062,0-3.842,0.133-5.293,0.396l-0.616,0.111v0.626v18.248v0.75h0.75  h3.348h0.75v-0.75v-6.132c0.265,0.015,0.562,0.022,0.897,0.022c2.734,0,4.939-0.759,6.375-2.196c1.18-1.117,1.812-2.756,1.812-4.729  C73.185,60.901,72.425,59.2,71.101,58.106z M64.998,65.562c-0.295,0-0.612-0.004-0.897-0.027v-4.975  c0.289-0.03,0.685-0.055,1.199-0.055c1.373,0,3.009,0.417,3.009,2.405C68.309,65.218,66.235,65.562,64.998,65.562z"/><path d="M90.43,58.736c-1.874-1.574-4.425-2.31-8.02-2.31c-2.024,0-3.978,0.14-5.502,0.394l-0.626,0.104v0.635l-0.002,18.194v0.662  l0.657,0.082c1.338,0.168,2.902,0.253,4.649,0.253c3.853,0,6.922-0.941,8.876-2.721c2.045-1.852,3.126-4.586,3.126-7.908  C93.587,62.928,92.525,60.443,90.43,58.736z M82.352,72.559h-0.073c-0.374,0-0.775,0-1.124-0.015V60.636  c0.358-0.042,0.864-0.077,1.557-0.077c1.92,0,3.396,0.504,4.385,1.5c0.956,0.962,1.437,2.364,1.426,4.167  C88.523,70.371,86.389,72.559,82.352,72.559z"/><polygon points="108.138,56.562 97.464,56.562 96.714,56.562 96.714,57.312 96.714,75.807 96.714,76.557 97.464,76.557   100.837,76.557 101.587,76.557 101.587,75.807 101.587,68.708 107.644,68.708 108.394,68.708 108.394,67.958 108.394,65.188   108.394,64.438 107.644,64.438 101.587,64.438 101.587,60.833 108.138,60.833 108.888,60.833 108.888,60.083 108.888,57.312   108.888,56.562 "/></svg>